<?xml version="1.0" encoding="UTF-8" standalone="no"?>
<svg version="1.1" xmlns="http://www.w3.org/2000/svg" fill-rule="evenodd" clip-rule="evenodd" height="1024" width="1024" viewBox="0 0 1024 1024"><path d="M575.390476 512c-9.752381 0-21.942857 9.752381-21.942857 21.942857s9.752381 21.942857 21.942857 21.942857c17.066667 0 26.819048-9.752381 26.819048-21.942857s-12.190476-21.942857-26.819048-21.942857zM504.685714 409.6c17.066667 0 26.819048-9.752381 26.819048-26.819048 0-17.066667-9.752381-26.819048-26.819048-26.819047-17.066667 0-31.695238 9.752381-31.695238 26.819047-2.438095 14.628571 14.628571 26.819048 31.695238 26.819048z" fill="#01B702"></path><path d="M819.2 73.142857H204.8C131.657143 73.142857 73.142857 131.657143 73.142857 204.8v614.4c0 73.142857 58.514286 131.657143 131.657143 131.657143h614.4c73.142857 0 131.657143-58.514286 131.657143-131.657143V204.8c0-73.142857-58.514286-131.657143-131.657143-131.657143zM421.790476 631.466667c-26.819048 0-48.761905-4.87619-75.580952-9.752381L270.628571 658.285714l21.942858-65.828571c-53.638095-39.009524-87.771429-87.771429-87.771429-146.285714 0-102.4 97.52381-185.295238 216.990476-185.295239 107.27619 0 199.92381 65.828571 219.428572 153.6-7.314286 0-14.628571-2.438095-21.942858-2.438095-102.4 0-185.295238 78.019048-185.295238 173.104762 0 17.066667 2.438095 31.695238 7.314286 46.32381h-19.504762zM743.619048 707.047619l17.066666 53.638095-58.514285-31.695238c-21.942857 4.87619-43.885714 9.752381-65.828572 9.752381-102.4 0-185.295238-70.704762-185.295238-158.47619s80.457143-158.47619 185.295238-158.476191c97.52381 0 185.295238 70.704762 185.295238 158.476191-2.438095 51.2-34.133333 95.085714-78.019047 126.780952z" fill="#01B702"></path><path d="M694.857143 512c-9.752381 0-21.942857 9.752381-21.942857 21.942857s9.752381 21.942857 21.942857 21.942857c17.066667 0 26.819048-9.752381 26.819047-21.942857s-12.190476-21.942857-26.819047-21.942857zM351.085714 353.52381c-17.066667 0-31.695238 9.752381-31.695238 26.819047 0 17.066667 17.066667 26.819048 31.695238 26.819048 17.066667 0 26.819048-9.752381 26.819048-26.819048 0-14.628571-9.752381-26.819048-26.819048-26.819047z" fill="#01B702"></path></svg>
